<svg width="1200" height="465" viewBox="0 0 1200 465" fill="none" xmlns="http://www.w3.org/2000/svg">
<path d="M0 2C0 0.895429 0.895431 0 2 0H1198C1199.1 0 1200 0.895431 1200 2V463C1200 464.105 1199.1 465 1198 465H2C0.895429 465 0 464.105 0 463V2Z" fill="#F2F2F2"/>
<path d="M345.139 206.945L347.204 210.611L348.222 210.014L346.137 206.312L347.464 206.663L347.758 205.503L344.511 204.645L343.668 207.966L344.804 208.266L345.139 206.945Z" fill="#AAAAAA"/>
<path d="M340.392 209.775L342.458 213.441L343.475 212.844L341.389 209.142L342.717 209.493L343.011 208.333L339.764 207.475L338.921 210.796L340.057 211.096L340.392 209.775Z" fill="#AAAAAA"/>
<path d="M342.658 216.51L350.933 211.563L350.34 210.529L342.065 215.476L342.658 216.51Z" fill="#AAAAAA"/>
<path d="M345.513 222.492L359.676 213.785L340.345 181L321.884 192.35L339.289 221.869C335.139 222.979 332.226 227.002 332.576 231.518C332.951 236.341 336.915 240.012 341.574 240.012C341.812 240.012 342.053 240.003 342.296 239.983C347.261 239.58 350.979 235.128 350.585 230.059C350.324 226.682 348.301 223.875 345.513 222.492ZM339.678 183.742L356.992 213.104L343.03 221.687C342.497 221.599 341.951 221.557 341.395 221.569L324.568 193.031L339.678 183.742ZM342.141 237.992C338.249 238.31 334.835 235.333 334.526 231.36C334.217 227.389 337.131 223.9 341.021 223.585C341.212 223.569 341.403 223.561 341.593 223.561C343.272 223.561 344.881 224.165 346.173 225.291C347.611 226.543 348.486 228.293 348.635 230.217C348.944 234.188 346.031 237.676 342.141 237.992Z" fill="#AAAAAA"/>
<path d="M341.428 228.827C340.369 228.913 339.576 229.863 339.659 230.944C339.739 231.973 340.585 232.757 341.58 232.757C341.631 232.757 341.682 232.755 341.733 232.75C342.793 232.664 343.586 231.715 343.502 230.633C343.418 229.551 342.484 228.738 341.428 228.827ZM341.641 231.557C341.23 231.594 340.863 231.273 340.829 230.85C340.796 230.427 341.107 230.055 341.522 230.022C341.541 230.02 341.562 230.019 341.582 230.019C341.97 230.019 342.301 230.326 342.333 230.729C342.365 231.151 342.055 231.523 341.641 231.557Z" fill="#AAAAAA"/>
<path d="M334.718 222.557L335.346 222.011L314.019 185.351C312.967 183.544 311.115 182.38 309.062 182.237L304.134 181.891L304 183.883L308.928 184.229C310.34 184.328 311.615 185.129 312.337 186.372L332.837 221.609C330.18 224.254 328.785 228.003 329.08 231.801L331.03 231.643C330.762 228.199 332.141 224.802 334.718 222.557Z" fill="#AAAAAA"/>
<path d="M361.449 216.932L350.133 223.826L351.269 225.46L362.45 218.647L361.449 216.932Z" fill="#AAAAAA"/>
<path d="M292.326 272.232H288.746V276H287.621V267.469H292.906V268.395H288.746V271.312H292.326V272.232ZM298.133 272.549H296.129V276H294.998V267.469H297.822C298.783 267.469 299.521 267.688 300.037 268.125C300.557 268.562 300.816 269.199 300.816 270.035C300.816 270.566 300.672 271.029 300.383 271.424C300.098 271.818 299.699 272.113 299.188 272.309L301.191 275.93V276H299.984L298.133 272.549ZM296.129 271.629H297.857C298.416 271.629 298.859 271.484 299.188 271.195C299.52 270.906 299.686 270.52 299.686 270.035C299.686 269.508 299.527 269.104 299.211 268.822C298.898 268.541 298.445 268.398 297.852 268.395H296.129V271.629ZM307.971 272.057H304.273V275.08H308.568V276H303.148V267.469H308.51V268.395H304.273V271.137H307.971V272.057ZM315.541 272.057H311.844V275.08H316.139V276H310.719V267.469H316.08V268.395H311.844V271.137H315.541V272.057ZM324.529 272.197C323.564 271.92 322.861 271.58 322.42 271.178C321.982 270.771 321.764 270.271 321.764 269.678C321.764 269.006 322.031 268.451 322.566 268.014C323.105 267.572 323.805 267.352 324.664 267.352C325.25 267.352 325.771 267.465 326.229 267.691C326.689 267.918 327.045 268.23 327.295 268.629C327.549 269.027 327.676 269.463 327.676 269.936H326.545C326.545 269.42 326.381 269.016 326.053 268.723C325.725 268.426 325.262 268.277 324.664 268.277C324.109 268.277 323.676 268.4 323.363 268.646C323.055 268.889 322.9 269.227 322.9 269.66C322.9 270.008 323.047 270.303 323.34 270.545C323.637 270.783 324.139 271.002 324.846 271.201C325.557 271.4 326.111 271.621 326.51 271.863C326.912 272.102 327.209 272.381 327.4 272.701C327.596 273.021 327.693 273.398 327.693 273.832C327.693 274.523 327.424 275.078 326.885 275.496C326.346 275.91 325.625 276.117 324.723 276.117C324.137 276.117 323.59 276.006 323.082 275.783C322.574 275.557 322.182 275.248 321.904 274.857C321.631 274.467 321.494 274.023 321.494 273.527H322.625C322.625 274.043 322.814 274.451 323.193 274.752C323.576 275.049 324.086 275.197 324.723 275.197C325.316 275.197 325.771 275.076 326.088 274.834C326.404 274.592 326.562 274.262 326.562 273.844C326.562 273.426 326.416 273.104 326.123 272.877C325.83 272.646 325.299 272.42 324.529 272.197ZM336.447 276H335.316V272.057H331.016V276H329.891V267.469H331.016V271.137H335.316V267.469H336.447V276ZM340.402 276H339.277V267.469H340.402V276ZM344.34 272.66V276H343.215V267.469H346.361C347.295 267.469 348.025 267.707 348.553 268.184C349.084 268.66 349.35 269.291 349.35 270.076C349.35 270.904 349.09 271.543 348.57 271.992C348.055 272.438 347.314 272.66 346.35 272.66H344.34ZM344.34 271.74H346.361C346.963 271.74 347.424 271.6 347.744 271.318C348.064 271.033 348.225 270.623 348.225 270.088C348.225 269.58 348.064 269.174 347.744 268.869C347.424 268.564 346.984 268.406 346.426 268.395H344.34V271.74ZM352.66 272.66V276H351.535V267.469H354.682C355.615 267.469 356.346 267.707 356.873 268.184C357.404 268.66 357.67 269.291 357.67 270.076C357.67 270.904 357.41 271.543 356.891 271.992C356.375 272.438 355.635 272.66 354.67 272.66H352.66ZM352.66 271.74H354.682C355.283 271.74 355.744 271.6 356.064 271.318C356.385 271.033 356.545 270.623 356.545 270.088C356.545 269.58 356.385 269.174 356.064 268.869C355.744 268.564 355.305 268.406 354.746 268.395H352.66V271.74ZM361.062 276H359.938V267.469H361.062V276ZM370.432 276H369.301L365.006 269.426V276H363.875V267.469H365.006L369.312 274.072V267.469H370.432V276ZM379.479 274.881C379.189 275.295 378.785 275.605 378.266 275.812C377.75 276.016 377.148 276.117 376.461 276.117C375.766 276.117 375.148 275.955 374.609 275.631C374.07 275.303 373.652 274.838 373.355 274.236C373.062 273.635 372.912 272.938 372.904 272.145V271.4C372.904 270.115 373.203 269.119 373.801 268.412C374.402 267.705 375.246 267.352 376.332 267.352C377.223 267.352 377.939 267.58 378.482 268.037C379.025 268.49 379.357 269.135 379.479 269.971H378.354C378.143 268.842 377.471 268.277 376.338 268.277C375.584 268.277 375.012 268.543 374.621 269.074C374.234 269.602 374.039 270.367 374.035 271.371V272.068C374.035 273.025 374.254 273.787 374.691 274.354C375.129 274.916 375.721 275.197 376.467 275.197C376.889 275.197 377.258 275.15 377.574 275.057C377.891 274.963 378.152 274.805 378.359 274.582V272.666H376.385V271.752H379.479V274.881Z" fill="#1A1A1A"/>
<path d="M882.854 205.324L876.136 205.323L840.075 205.32C838.355 205.32 836.955 203.891 836.955 202.133C836.955 200.376 838.354 198.947 840.076 198.947L880.584 198.949V196.955L840.076 196.953C837.279 196.953 835.003 199.276 835.002 202.133L835 237.815C835 239.393 836.256 240.676 837.802 240.676L882.853 240.68C884.398 240.68 885.655 239.396 885.655 237.82L885.657 217.024L885.658 208.184C885.656 206.607 884.399 205.324 882.854 205.324ZM883.701 237.82C883.701 238.297 883.32 238.687 882.852 238.687L837.801 238.683C837.333 238.683 836.952 238.293 836.952 237.816L836.954 206.209C837.584 206.713 838.331 207.067 839.148 207.223V207.313H840.074L876.135 207.316L882.853 207.317C883.322 207.317 883.702 207.706 883.702 208.184L883.701 217.024V237.82Z" fill="#AAAAAA"/>
<path d="M882.682 201.158H841.507V202.354H882.682V201.158Z" fill="#AAAAAA"/>
<path d="M894.144 187.374C888.014 181.114 878.247 180.784 871.728 186.376L872.375 181.255L870.439 181L869.348 189.636L877.805 190.748L878.055 188.772L872.784 188.078C878.535 182.964 887.292 183.196 892.764 188.784C898.477 194.619 898.476 204.112 892.762 209.946L894.143 211.356C900.618 204.744 900.619 193.986 894.144 187.374Z" fill="#AAAAAA"/>
<path d="M826.574 272.232H822.994V276H821.869V267.469H827.154V268.395H822.994V271.312H826.574V272.232ZM832.381 272.549H830.377V276H829.246V267.469H832.07C833.031 267.469 833.77 267.688 834.285 268.125C834.805 268.562 835.064 269.199 835.064 270.035C835.064 270.566 834.92 271.029 834.631 271.424C834.346 271.818 833.947 272.113 833.436 272.309L835.439 275.93V276H834.232L832.381 272.549ZM830.377 271.629H832.105C832.664 271.629 833.107 271.484 833.436 271.195C833.768 270.906 833.934 270.52 833.934 270.035C833.934 269.508 833.775 269.104 833.459 268.822C833.146 268.541 832.693 268.398 832.1 268.395H830.377V271.629ZM842.219 272.057H838.521V275.08H842.816V276H837.396V267.469H842.758V268.395H838.521V271.137H842.219V272.057ZM849.789 272.057H846.092V275.08H850.387V276H844.967V267.469H850.328V268.395H846.092V271.137H849.789V272.057ZM859.393 272.549H857.389V276H856.258V267.469H859.082C860.043 267.469 860.781 267.688 861.297 268.125C861.816 268.562 862.076 269.199 862.076 270.035C862.076 270.566 861.932 271.029 861.643 271.424C861.357 271.818 860.959 272.113 860.447 272.309L862.451 275.93V276H861.244L859.393 272.549ZM857.389 271.629H859.117C859.676 271.629 860.119 271.484 860.447 271.195C860.779 270.906 860.945 270.52 860.945 270.035C860.945 269.508 860.787 269.104 860.471 268.822C860.158 268.541 859.705 268.398 859.111 268.395H857.389V271.629ZM869.23 272.057H865.533V275.08H869.828V276H864.408V267.469H869.77V268.395H865.533V271.137H869.23V272.057ZM877.99 268.395H875.248V276H874.129V268.395H871.393V267.469H877.99V268.395ZM886.012 267.469V273.27C886.008 274.074 885.754 274.732 885.25 275.244C884.75 275.756 884.07 276.043 883.211 276.105L882.912 276.117C881.979 276.117 881.234 275.865 880.68 275.361C880.125 274.857 879.844 274.164 879.836 273.281V267.469H880.949V273.246C880.949 273.863 881.119 274.344 881.459 274.688C881.799 275.027 882.283 275.197 882.912 275.197C883.549 275.197 884.035 275.027 884.371 274.688C884.711 274.348 884.881 273.869 884.881 273.252V267.469H886.012ZM891.666 272.549H889.662V276H888.531V267.469H891.355C892.316 267.469 893.055 267.688 893.57 268.125C894.09 268.562 894.35 269.199 894.35 270.035C894.35 270.566 894.205 271.029 893.916 271.424C893.631 271.818 893.232 272.113 892.721 272.309L894.725 275.93V276H893.518L891.666 272.549ZM889.662 271.629H891.391C891.949 271.629 892.393 271.484 892.721 271.195C893.053 270.906 893.219 270.52 893.219 270.035C893.219 269.508 893.061 269.104 892.744 268.822C892.432 268.541 891.979 268.398 891.385 268.395H889.662V271.629ZM903.238 276H902.107L897.812 269.426V276H896.682V267.469H897.812L902.119 274.072V267.469H903.238V276ZM908.5 272.197C907.535 271.92 906.832 271.58 906.391 271.178C905.953 270.771 905.734 270.271 905.734 269.678C905.734 269.006 906.002 268.451 906.537 268.014C907.076 267.572 907.775 267.352 908.635 267.352C909.221 267.352 909.742 267.465 910.199 267.691C910.66 267.918 911.016 268.23 911.266 268.629C911.52 269.027 911.646 269.463 911.646 269.936H910.516C910.516 269.42 910.352 269.016 910.023 268.723C909.695 268.426 909.232 268.277 908.635 268.277C908.08 268.277 907.646 268.4 907.334 268.646C907.025 268.889 906.871 269.227 906.871 269.66C906.871 270.008 907.018 270.303 907.311 270.545C907.607 270.783 908.109 271.002 908.816 271.201C909.527 271.4 910.082 271.621 910.48 271.863C910.883 272.102 911.18 272.381 911.371 272.701C911.566 273.021 911.664 273.398 911.664 273.832C911.664 274.523 911.395 275.078 910.855 275.496C910.316 275.91 909.596 276.117 908.693 276.117C908.107 276.117 907.561 276.006 907.053 275.783C906.545 275.557 906.152 275.248 905.875 274.857C905.602 274.467 905.465 274.023 905.465 273.527H906.596C906.596 274.043 906.785 274.451 907.164 274.752C907.547 275.049 908.057 275.197 908.693 275.197C909.287 275.197 909.742 275.076 910.059 274.834C910.375 274.592 910.533 274.262 910.533 273.844C910.533 273.426 910.387 273.104 910.094 272.877C909.801 272.646 909.27 272.42 908.5 272.197Z" fill="#1A1A1A"/>
<path d="M562.006 272.66V276H560.881V267.469H564.027C564.961 267.469 565.691 267.707 566.219 268.184C566.75 268.66 567.016 269.291 567.016 270.076C567.016 270.904 566.756 271.543 566.236 271.992C565.721 272.438 564.98 272.66 564.016 272.66H562.006ZM562.006 271.74H564.027C564.629 271.74 565.09 271.6 565.41 271.318C565.73 271.033 565.891 270.623 565.891 270.088C565.891 269.58 565.73 269.174 565.41 268.869C565.09 268.564 564.65 268.406 564.092 268.395H562.006V271.74ZM570.332 275.08H574.375V276H569.201V267.469H570.332V275.08ZM582.098 267.469V273.27C582.094 274.074 581.84 274.732 581.336 275.244C580.836 275.756 580.156 276.043 579.297 276.105L578.998 276.117C578.064 276.117 577.32 275.865 576.766 275.361C576.211 274.857 575.93 274.164 575.922 273.281V267.469H577.035V273.246C577.035 273.863 577.205 274.344 577.545 274.688C577.885 275.027 578.369 275.197 578.998 275.197C579.635 275.197 580.121 275.027 580.457 274.688C580.797 274.348 580.967 273.869 580.967 273.252V267.469H582.098ZM590.922 274.881C590.633 275.295 590.229 275.605 589.709 275.812C589.193 276.016 588.592 276.117 587.904 276.117C587.209 276.117 586.592 275.955 586.053 275.631C585.514 275.303 585.096 274.838 584.799 274.236C584.506 273.635 584.355 272.938 584.348 272.145V271.4C584.348 270.115 584.646 269.119 585.244 268.412C585.846 267.705 586.689 267.352 587.775 267.352C588.666 267.352 589.383 267.58 589.926 268.037C590.469 268.49 590.801 269.135 590.922 269.971H589.797C589.586 268.842 588.914 268.277 587.781 268.277C587.027 268.277 586.455 268.543 586.064 269.074C585.678 269.602 585.482 270.367 585.479 271.371V272.068C585.479 273.025 585.697 273.787 586.135 274.354C586.572 274.916 587.164 275.197 587.91 275.197C588.332 275.197 588.701 275.15 589.018 275.057C589.334 274.963 589.596 274.805 589.803 274.582V272.666H587.828V271.752H590.922V274.881ZM596.881 273.709C596.881 273.299 596.994 272.922 597.221 272.578C597.451 272.234 597.889 271.834 598.533 271.377C598.154 270.916 597.9 270.545 597.771 270.264C597.643 269.982 597.578 269.703 597.578 269.426C597.578 268.777 597.77 268.27 598.152 267.902C598.535 267.535 599.055 267.352 599.711 267.352C600.297 267.352 600.781 267.523 601.164 267.867C601.547 268.207 601.738 268.637 601.738 269.156C601.738 269.5 601.65 269.818 601.475 270.111C601.303 270.4 601 270.705 600.566 271.025L599.939 271.488L601.838 273.756C602.104 273.248 602.236 272.684 602.236 272.062H603.215C603.215 273.059 602.975 273.885 602.494 274.541L603.713 276H602.412L601.844 275.326C601.555 275.584 601.215 275.781 600.824 275.918C600.438 276.051 600.043 276.117 599.641 276.117C598.809 276.117 598.141 275.896 597.637 275.455C597.133 275.014 596.881 274.432 596.881 273.709ZM599.641 275.232C600.215 275.232 600.74 275.014 601.217 274.576L599.137 272.086L598.943 272.227C598.291 272.707 597.965 273.201 597.965 273.709C597.965 274.17 598.113 274.539 598.41 274.816C598.711 275.094 599.121 275.232 599.641 275.232ZM598.662 269.391C598.662 269.766 598.893 270.234 599.354 270.797L600.045 270.311C600.311 270.123 600.492 269.945 600.59 269.777C600.688 269.605 600.736 269.398 600.736 269.156C600.736 268.895 600.639 268.678 600.443 268.506C600.248 268.33 600.002 268.242 599.705 268.242C599.385 268.242 599.131 268.352 598.943 268.57C598.756 268.785 598.662 269.059 598.662 269.391ZM610.346 272.66V276H609.221V267.469H612.367C613.301 267.469 614.031 267.707 614.559 268.184C615.09 268.66 615.355 269.291 615.355 270.076C615.355 270.904 615.096 271.543 614.576 271.992C614.061 272.438 613.32 272.66 612.355 272.66H610.346ZM610.346 271.74H612.367C612.969 271.74 613.43 271.6 613.75 271.318C614.07 271.033 614.23 270.623 614.23 270.088C614.23 269.58 614.07 269.174 613.75 268.869C613.43 268.564 612.99 268.406 612.432 268.395H610.346V271.74ZM618.672 275.08H622.715V276H617.541V267.469H618.672V275.08ZM629.576 273.773H626.002L625.199 276H624.039L627.297 267.469H628.281L631.545 276H630.391L629.576 273.773ZM626.342 272.848H629.242L627.789 268.857L626.342 272.848ZM635.494 271.752L637.721 267.469H638.998L636.057 272.818V276H634.932V272.818L631.99 267.469H633.279L635.494 271.752Z" fill="#1A1A1A"/>
<g clip-path="url(#clip0_0_366)">
<path d="M631.85 211.812C631.856 211.014 631.457 210.291 630.783 209.88L630.376 209.631C631.066 207.678 632.47 200.987 623.498 192.835C618.686 188.461 611.366 185.829 602.888 185.422C595.221 185.05 587.275 186.51 581.076 189.417C573.334 193.049 568.329 199.005 568.016 204.96C567.818 208.722 569.395 214.309 578.036 219.565C583.07 222.628 589 223.776 594.631 223.776C598.358 223.776 601.952 223.273 605.068 222.49L605.066 223.139L601.285 225.331C600.185 225.977 599.326 227.49 599.33 228.777C599.332 229.505 599.617 230.089 600.11 230.377C600.328 230.504 600.573 230.568 600.834 230.568C601.168 230.568 601.525 230.464 601.876 230.257L605.187 228.337C605.278 228.601 605.414 228.845 605.589 229.06C604.896 229.817 604.422 230.896 604.425 231.851C604.426 232.579 604.712 233.162 605.205 233.451C605.423 233.579 605.668 233.642 605.929 233.642C606.263 233.642 606.619 233.538 606.971 233.332L609.72 231.738L615.563 235.299C615.931 235.524 616.338 235.637 616.746 235.637C617.134 235.637 617.522 235.535 617.878 235.33C617.981 235.271 618.076 235.204 618.167 235.132L630.106 227.15C631.187 226.495 631.855 225.297 631.851 224.017L631.814 212.198C631.834 212.071 631.85 211.944 631.85 211.812ZM618.08 218.898C617.888 218.703 617.674 218.528 617.437 218.384L609.308 213.431L619.815 207.114C620.645 206.62 621.675 206.625 622.5 207.13L629.784 211.573C629.888 211.637 629.909 211.731 629.909 211.799C629.909 211.867 629.885 211.96 629.783 212.021L618.08 218.898ZM579.032 217.869C572.851 214.109 569.713 209.681 569.955 205.065C570.229 199.843 574.803 194.535 581.889 191.211C593.646 185.697 612.651 185.626 622.205 194.307C629.816 201.223 629.207 206.698 628.67 208.59L623.499 205.435C622.634 204.907 621.64 204.699 620.669 204.803C618.888 199.325 612.508 193.546 601.992 192.688C598.313 192.387 594.382 192.722 590.307 193.681C587.116 194.433 585.374 195.322 583.441 196.603L584.502 198.258C586.294 197.069 587.82 196.294 590.745 195.605C594.624 194.692 598.355 194.373 601.837 194.657C611.461 195.442 617.249 200.569 618.823 205.415L606.401 212.882C606.353 212.905 606.305 212.926 606.258 212.952C605.527 213.371 605.09 214.131 605.088 214.984L605.073 220.45C597.607 222.433 587.064 222.754 579.032 217.869ZM601.295 229.228C601.045 229.374 600.814 229.42 600.691 229.349C600.57 229.278 600.494 229.057 600.494 228.772C600.491 227.9 601.12 226.793 601.864 226.357L608.993 222.224L609 224.761L601.295 229.228ZM606.39 232.304C606.14 232.45 605.908 232.496 605.785 232.424C605.665 232.354 605.589 232.132 605.588 231.848C605.586 230.977 606.215 229.869 606.959 229.433L614.088 225.3L614.095 227.837L606.39 232.304ZM611.656 230.616L614.968 228.696C615.15 228.59 615.263 228.393 615.262 228.179L615.252 224.28C615.251 224.069 615.14 223.874 614.961 223.769C614.782 223.663 614.561 223.662 614.38 223.767L607.224 227.915L607.17 227.883C607.062 227.817 606.995 227.697 606.995 227.566V227.29L609.873 225.622C610.055 225.516 610.168 225.319 610.167 225.105L610.157 221.206C610.156 220.995 610.045 220.8 609.866 220.695C609.687 220.589 609.466 220.588 609.285 220.693L607.011 222.011L607.03 214.991C607.03 214.806 607.145 214.713 607.212 214.674C607.28 214.635 607.417 214.583 607.575 214.679L616.438 220.078C616.871 220.343 617.14 220.827 617.139 221.341L617.105 233.292C617.105 233.415 617.054 233.495 617 233.548L616.876 233.63C616.801 233.661 616.688 233.682 616.56 233.604L611.656 230.616ZM629.1 225.458L619.052 232.176L619.081 221.346C619.082 221.104 619.052 220.868 619.003 220.637L629.877 214.248L629.908 224.022C629.909 224.611 629.6 225.161 629.1 225.458Z" fill="#AAAAAA"/>
</g>
<path d="M402.074 104H397.896V76.3057L389.519 79.3828V75.6094L401.423 71.1396H402.074V104ZM434.755 90.0518C434.755 94.9183 433.924 98.5345 432.262 100.9C430.6 103.266 428.002 104.449 424.468 104.449C420.979 104.449 418.396 103.296 416.719 100.99C415.042 98.6693 414.173 95.2103 414.113 90.6133V85.0654C414.113 80.2588 414.944 76.6875 416.606 74.3516C418.269 72.0156 420.874 70.8477 424.423 70.8477C427.942 70.8477 430.532 71.9782 432.194 74.2393C433.856 76.4854 434.71 79.9593 434.755 84.6611V90.0518ZM430.6 84.3691C430.6 80.8503 430.105 78.2897 429.117 76.6875C428.129 75.0703 426.564 74.2617 424.423 74.2617C422.297 74.2617 420.747 75.0628 419.773 76.665C418.8 78.2673 418.299 80.7305 418.269 84.0547V90.7031C418.269 94.237 418.778 96.8499 419.796 98.542C420.829 100.219 422.386 101.058 424.468 101.058C426.519 101.058 428.039 100.264 429.027 98.6768C430.031 97.0895 430.555 94.5889 430.6 91.1748V84.3691ZM460.585 90.0518C460.585 94.9183 459.754 98.5345 458.092 100.9C456.43 103.266 453.832 104.449 450.298 104.449C446.809 104.449 444.226 103.296 442.549 100.99C440.872 98.6693 440.003 95.2103 439.943 90.6133V85.0654C439.943 80.2588 440.774 76.6875 442.437 74.3516C444.099 72.0156 446.704 70.8477 450.253 70.8477C453.772 70.8477 456.362 71.9782 458.024 74.2393C459.687 76.4854 460.54 79.9593 460.585 84.6611V90.0518ZM456.43 84.3691C456.43 80.8503 455.936 78.2897 454.947 76.6875C453.959 75.0703 452.394 74.2617 450.253 74.2617C448.127 74.2617 446.577 75.0628 445.604 76.665C444.63 78.2673 444.129 80.7305 444.099 84.0547V90.7031C444.099 94.237 444.608 96.8499 445.626 98.542C446.659 100.219 448.216 101.058 450.298 101.058C452.349 101.058 453.869 100.264 454.857 98.6768C455.861 97.0895 456.385 94.5889 456.43 91.1748V84.3691ZM476.734 91.6465C476.734 87.918 477.618 84.9232 479.385 82.6621C481.152 80.3861 483.465 79.248 486.325 79.248C489.17 79.248 491.424 80.2214 493.086 82.168V69.5H497.241V104H493.423L493.221 101.395C491.559 103.431 489.245 104.449 486.28 104.449C483.465 104.449 481.167 103.296 479.385 100.99C477.618 98.6842 476.734 95.6745 476.734 91.9609V91.6465ZM480.89 92.1182C480.89 94.8734 481.459 97.0296 482.597 98.5869C483.735 100.144 485.307 100.923 487.313 100.923C489.949 100.923 491.873 99.7399 493.086 97.374V86.2109C491.843 83.9199 489.934 82.7744 487.358 82.7744C485.322 82.7744 483.735 83.5605 482.597 85.1328C481.459 86.7051 480.89 89.0335 480.89 92.1182ZM518.714 104C518.474 103.521 518.28 102.667 518.13 101.439C516.198 103.446 513.892 104.449 511.212 104.449C508.816 104.449 506.847 103.775 505.305 102.428C503.777 101.065 503.014 99.3431 503.014 97.2617C503.014 94.7311 503.972 92.7695 505.889 91.377C507.82 89.9694 510.531 89.2656 514.02 89.2656H518.062V87.3564C518.062 85.904 517.628 84.751 516.76 83.8975C515.891 83.029 514.611 82.5947 512.919 82.5947C511.437 82.5947 510.194 82.9691 509.19 83.7178C508.187 84.4665 507.686 85.3724 507.686 86.4355H503.508C503.508 85.2227 503.935 84.0547 504.788 82.9316C505.657 81.7936 506.825 80.8952 508.292 80.2363C509.774 79.5775 511.399 79.248 513.166 79.248C515.966 79.248 518.16 79.9518 519.747 81.3594C521.334 82.752 522.158 84.6761 522.218 87.1318V98.3174C522.218 100.549 522.502 102.323 523.071 103.641V104H518.714ZM511.818 100.833C513.121 100.833 514.356 100.496 515.524 99.8223C516.692 99.1484 517.538 98.2725 518.062 97.1943V92.208H514.806C509.715 92.208 507.169 93.6979 507.169 96.6777C507.169 97.9805 507.603 98.9987 508.472 99.7324C509.34 100.466 510.456 100.833 511.818 100.833ZM536.323 97.9131L541.983 79.6973H546.431L536.66 107.751C535.148 111.794 532.744 113.815 529.45 113.815L528.664 113.748L527.114 113.456V110.087L528.237 110.177C529.645 110.177 530.738 109.892 531.517 109.323C532.31 108.754 532.962 107.714 533.471 106.201L534.392 103.73L525.722 79.6973H530.259L536.323 97.9131ZM573.316 83.4258C572.688 83.321 572.006 83.2686 571.272 83.2686C568.547 83.2686 566.698 84.429 565.725 86.75V104H561.569V79.6973H565.612L565.68 82.5049C567.042 80.3337 568.974 79.248 571.475 79.248C572.283 79.248 572.897 79.3529 573.316 79.5625V83.4258ZM581.672 104H577.517V79.6973H581.672V104ZM577.18 73.251C577.18 72.5771 577.382 72.0081 577.786 71.5439C578.205 71.0798 578.819 70.8477 579.628 70.8477C580.437 70.8477 581.05 71.0798 581.47 71.5439C581.889 72.0081 582.099 72.5771 582.099 73.251C582.099 73.9248 581.889 74.4863 581.47 74.9355C581.05 75.3848 580.437 75.6094 579.628 75.6094C578.819 75.6094 578.205 75.3848 577.786 74.9355C577.382 74.4863 577.18 73.9248 577.18 73.251ZM602.493 97.5537C602.493 96.4307 602.066 95.5622 601.213 94.9482C600.374 94.3193 598.899 93.7803 596.788 93.3311C594.692 92.8818 593.022 92.3428 591.779 91.7139C590.551 91.085 589.638 90.3363 589.039 89.4678C588.455 88.5993 588.163 87.5661 588.163 86.3682C588.163 84.3766 589.002 82.6921 590.679 81.3145C592.371 79.9368 594.527 79.248 597.147 79.248C599.903 79.248 602.134 79.9593 603.841 81.3818C605.563 82.8044 606.424 84.6237 606.424 86.8398H602.246C602.246 85.7018 601.759 84.721 600.786 83.8975C599.828 83.0739 598.615 82.6621 597.147 82.6621C595.635 82.6621 594.452 82.9915 593.599 83.6504C592.745 84.3092 592.318 85.1702 592.318 86.2334C592.318 87.2367 592.715 87.9928 593.509 88.502C594.302 89.0111 595.732 89.4977 597.799 89.9619C599.88 90.4261 601.565 90.9801 602.853 91.624C604.14 92.2679 605.091 93.0465 605.705 93.96C606.334 94.8584 606.648 95.959 606.648 97.2617C606.648 99.4329 605.78 101.177 604.043 102.495C602.306 103.798 600.052 104.449 597.282 104.449C595.336 104.449 593.614 104.105 592.116 103.416C590.619 102.727 589.443 101.769 588.59 100.541C587.751 99.2982 587.332 97.958 587.332 96.5205H591.487C591.562 97.9131 592.116 99.0212 593.149 99.8447C594.198 100.653 595.575 101.058 597.282 101.058C598.854 101.058 600.112 100.743 601.056 100.114C602.014 99.4704 602.493 98.6169 602.493 97.5537ZM618.845 92.7471L616.239 95.4648V104H612.084V69.5H616.239V90.3662L618.463 87.6934L626.032 79.6973H631.086L621.63 89.8496L632.187 104H627.312L618.845 92.7471ZM644.023 91.8037H633.062V88.4121H644.023V91.8037ZM650.133 104V82.9092H646.292V79.6973H650.133V77.2041C650.133 74.5986 650.829 72.5846 652.222 71.1621C653.614 69.7396 655.583 69.0283 658.129 69.0283C659.087 69.0283 660.038 69.1556 660.981 69.4102L660.757 72.7793C660.053 72.6445 659.304 72.5771 658.511 72.5771C657.163 72.5771 656.122 72.974 655.389 73.7676C654.655 74.5462 654.288 75.6693 654.288 77.1367V79.6973H659.477V82.9092H654.288V104H650.133ZM675.828 83.4258C675.199 83.321 674.518 83.2686 673.784 83.2686C671.059 83.2686 669.21 84.429 668.236 86.75V104H664.081V79.6973H668.124L668.191 82.5049C669.554 80.3337 671.486 79.248 673.986 79.248C674.795 79.248 675.409 79.3529 675.828 79.5625V83.4258ZM689.305 104.449C686.01 104.449 683.33 103.371 681.264 101.215C679.197 99.0436 678.164 96.1462 678.164 92.5225V91.7588C678.164 89.348 678.621 87.1992 679.534 85.3125C680.463 83.4108 681.75 81.9284 683.397 80.8652C685.06 79.7871 686.856 79.248 688.788 79.248C691.948 79.248 694.403 80.2887 696.155 82.3701C697.907 84.4515 698.783 87.4313 698.783 91.3096V93.0391H682.319C682.379 95.4349 683.076 97.374 684.408 98.8564C685.756 100.324 687.463 101.058 689.529 101.058C690.997 101.058 692.24 100.758 693.258 100.159C694.276 99.5602 695.167 98.7666 695.931 97.7783L698.469 99.7549C696.432 102.884 693.378 104.449 689.305 104.449ZM688.788 82.6621C687.111 82.6621 685.703 83.276 684.565 84.5039C683.427 85.7168 682.724 87.4238 682.454 89.625H694.628V89.3105C694.508 87.1992 693.939 85.5671 692.921 84.4141C691.903 83.2461 690.525 82.6621 688.788 82.6621ZM713.697 104.449C710.403 104.449 707.723 103.371 705.656 101.215C703.59 99.0436 702.557 96.1462 702.557 92.5225V91.7588C702.557 89.348 703.013 87.1992 703.927 85.3125C704.855 83.4108 706.143 81.9284 707.79 80.8652C709.452 79.7871 711.249 79.248 713.181 79.248C716.34 79.248 718.796 80.2887 720.548 82.3701C722.3 84.4515 723.176 87.4313 723.176 91.3096V93.0391H706.712C706.772 95.4349 707.468 97.374 708.801 98.8564C710.148 100.324 711.855 101.058 713.922 101.058C715.389 101.058 716.632 100.758 717.65 100.159C718.669 99.5602 719.56 98.7666 720.323 97.7783L722.861 99.7549C720.825 102.884 717.77 104.449 713.697 104.449ZM713.181 82.6621C711.504 82.6621 710.096 83.276 708.958 84.5039C707.82 85.7168 707.116 87.4238 706.847 89.625H719.021V89.3105C718.901 87.1992 718.332 85.5671 717.313 84.4141C716.295 83.2461 714.918 82.6621 713.181 82.6621ZM745.053 73.8125V79.6973H749.59V82.9092H745.053V97.9805C745.053 98.9538 745.255 99.6875 745.659 100.182C746.063 100.661 746.752 100.9 747.726 100.9C748.205 100.9 748.864 100.811 749.702 100.631V104C748.609 104.299 747.546 104.449 746.513 104.449C744.656 104.449 743.256 103.888 742.312 102.765C741.369 101.642 740.897 100.047 740.897 97.9805V82.9092H736.473V79.6973H740.897V73.8125H745.053ZM766.211 83.4258C765.582 83.321 764.901 83.2686 764.167 83.2686C761.442 83.2686 759.592 84.429 758.619 86.75V104H754.464V79.6973H758.507L758.574 82.5049C759.937 80.3337 761.868 79.248 764.369 79.248C765.178 79.248 765.792 79.3529 766.211 79.5625V83.4258ZM774.566 104H770.411V79.6973H774.566V104ZM770.074 73.251C770.074 72.5771 770.276 72.0081 770.681 71.5439C771.1 71.0798 771.714 70.8477 772.522 70.8477C773.331 70.8477 773.945 71.0798 774.364 71.5439C774.784 72.0081 774.993 72.5771 774.993 73.251C774.993 73.9248 774.784 74.4863 774.364 74.9355C773.945 75.3848 773.331 75.6094 772.522 75.6094C771.714 75.6094 771.1 75.3848 770.681 74.9355C770.276 74.4863 770.074 73.9248 770.074 73.251ZM796.241 104C796.002 103.521 795.807 102.667 795.657 101.439C793.726 103.446 791.42 104.449 788.739 104.449C786.343 104.449 784.374 103.775 782.832 102.428C781.305 101.065 780.541 99.3431 780.541 97.2617C780.541 94.7311 781.499 92.7695 783.416 91.377C785.348 89.9694 788.058 89.2656 791.547 89.2656H795.59V87.3564C795.59 85.904 795.156 84.751 794.287 83.8975C793.419 83.029 792.138 82.5947 790.446 82.5947C788.964 82.5947 787.721 82.9691 786.718 83.7178C785.715 84.4665 785.213 85.3724 785.213 86.4355H781.035C781.035 85.2227 781.462 84.0547 782.315 82.9316C783.184 81.7936 784.352 80.8952 785.819 80.2363C787.302 79.5775 788.926 79.248 790.693 79.248C793.493 79.248 795.687 79.9518 797.274 81.3594C798.862 82.752 799.685 84.6761 799.745 87.1318V98.3174C799.745 100.549 800.03 102.323 800.599 103.641V104H796.241ZM789.346 100.833C790.648 100.833 791.884 100.496 793.052 99.8223C794.22 99.1484 795.066 98.2725 795.59 97.1943V92.208H792.333C787.242 92.208 784.696 93.6979 784.696 96.6777C784.696 97.9805 785.131 98.9987 785.999 99.7324C786.868 100.466 787.983 100.833 789.346 100.833ZM810.773 104H806.618V69.5H810.773V104Z" fill="black"/>
<path d="M642.734 436C642.672 435.875 642.621 435.652 642.582 435.332C642.078 435.855 641.477 436.117 640.777 436.117C640.152 436.117 639.639 435.941 639.236 435.59C638.838 435.234 638.639 434.785 638.639 434.242C638.639 433.582 638.889 433.07 639.389 432.707C639.893 432.34 640.6 432.156 641.51 432.156H642.564V431.658C642.564 431.279 642.451 430.979 642.225 430.756C641.998 430.529 641.664 430.416 641.223 430.416C640.836 430.416 640.512 430.514 640.25 430.709C639.988 430.904 639.857 431.141 639.857 431.418H638.768C638.768 431.102 638.879 430.797 639.102 430.504C639.328 430.207 639.633 429.973 640.016 429.801C640.402 429.629 640.826 429.543 641.287 429.543C642.018 429.543 642.59 429.727 643.004 430.094C643.418 430.457 643.633 430.959 643.648 431.6V434.518C643.648 435.1 643.723 435.562 643.871 435.906V436H642.734ZM640.936 435.174C641.275 435.174 641.598 435.086 641.902 434.91C642.207 434.734 642.428 434.506 642.564 434.225V432.924H641.715C640.387 432.924 639.723 433.312 639.723 434.09C639.723 434.43 639.836 434.695 640.062 434.887C640.289 435.078 640.58 435.174 640.936 435.174ZM650.703 432.9C650.703 433.865 650.482 434.643 650.041 435.232C649.6 435.822 649.002 436.117 648.248 436.117C647.479 436.117 646.873 435.873 646.432 435.385V438.438H645.348V429.66H646.338L646.391 430.363C646.832 429.816 647.445 429.543 648.23 429.543C648.992 429.543 649.594 429.83 650.035 430.404C650.48 430.979 650.703 431.777 650.703 432.801V432.9ZM649.619 432.777C649.619 432.062 649.467 431.498 649.162 431.084C648.857 430.67 648.439 430.463 647.908 430.463C647.252 430.463 646.76 430.754 646.432 431.336V434.365C646.756 434.943 647.252 435.232 647.92 435.232C648.439 435.232 648.852 435.027 649.156 434.617C649.465 434.203 649.619 433.59 649.619 432.777ZM657.441 432.9C657.441 433.865 657.221 434.643 656.779 435.232C656.338 435.822 655.74 436.117 654.986 436.117C654.217 436.117 653.611 435.873 653.17 435.385V438.438H652.086V429.66H653.076L653.129 430.363C653.57 429.816 654.184 429.543 654.969 429.543C655.73 429.543 656.332 429.83 656.773 430.404C657.219 430.979 657.441 431.777 657.441 432.801V432.9ZM656.357 432.777C656.357 432.062 656.205 431.498 655.9 431.084C655.596 430.67 655.178 430.463 654.646 430.463C653.99 430.463 653.498 430.754 653.17 431.336V434.365C653.494 434.943 653.99 435.232 654.658 435.232C655.178 435.232 655.59 435.027 655.895 434.617C656.203 434.203 656.357 433.59 656.357 432.777ZM660.002 436H658.918V427H660.002V436ZM663.816 434.412L665.293 429.66H666.453L663.904 436.979C663.51 438.033 662.883 438.561 662.023 438.561L661.818 438.543L661.414 438.467V437.588L661.707 437.611C662.074 437.611 662.359 437.537 662.562 437.389C662.77 437.24 662.939 436.969 663.072 436.574L663.312 435.93L661.051 429.66H662.234L663.816 434.412Z" fill="#AAAAAA"/>
<path d="M537.885 428.395H535.143V436H534.023V428.395H531.287V427.469H537.885V428.395ZM541.025 436.117C540.166 436.117 539.467 435.836 538.928 435.273C538.389 434.707 538.119 433.951 538.119 433.006V432.807C538.119 432.178 538.238 431.617 538.477 431.125C538.719 430.629 539.055 430.242 539.484 429.965C539.918 429.684 540.387 429.543 540.891 429.543C541.715 429.543 542.355 429.814 542.812 430.357C543.27 430.9 543.498 431.678 543.498 432.689V433.141H539.203C539.219 433.766 539.4 434.271 539.748 434.658C540.1 435.041 540.545 435.232 541.084 435.232C541.467 435.232 541.791 435.154 542.057 434.998C542.322 434.842 542.555 434.635 542.754 434.377L543.416 434.893C542.885 435.709 542.088 436.117 541.025 436.117ZM540.891 430.434C540.453 430.434 540.086 430.594 539.789 430.914C539.492 431.23 539.309 431.676 539.238 432.25H542.414V432.168C542.383 431.617 542.234 431.191 541.969 430.891C541.703 430.586 541.344 430.434 540.891 430.434ZM547.822 430.633C547.658 430.605 547.48 430.592 547.289 430.592C546.578 430.592 546.096 430.895 545.842 431.5V436H544.758V429.66H545.812L545.83 430.393C546.186 429.826 546.689 429.543 547.342 429.543C547.553 429.543 547.713 429.57 547.822 429.625V430.633ZM549.844 429.66L549.873 430.363C550.338 429.816 550.965 429.543 551.754 429.543C552.641 429.543 553.244 429.883 553.564 430.562C553.775 430.258 554.049 430.012 554.385 429.824C554.725 429.637 555.125 429.543 555.586 429.543C556.977 429.543 557.684 430.279 557.707 431.752V436H556.623V431.816C556.623 431.363 556.52 431.025 556.312 430.803C556.105 430.576 555.758 430.463 555.27 430.463C554.867 430.463 554.533 430.584 554.268 430.826C554.002 431.064 553.848 431.387 553.805 431.793V436H552.715V431.846C552.715 430.924 552.264 430.463 551.361 430.463C550.65 430.463 550.164 430.766 549.902 431.371V436H548.818V429.66H549.844ZM563.039 434.318C563.039 434.025 562.928 433.799 562.705 433.639C562.486 433.475 562.102 433.334 561.551 433.217C561.004 433.1 560.568 432.959 560.244 432.795C559.924 432.631 559.686 432.436 559.529 432.209C559.377 431.982 559.301 431.713 559.301 431.4C559.301 430.881 559.52 430.441 559.957 430.082C560.398 429.723 560.961 429.543 561.645 429.543C562.363 429.543 562.945 429.729 563.391 430.1C563.84 430.471 564.064 430.945 564.064 431.523H562.975C562.975 431.227 562.848 430.971 562.594 430.756C562.344 430.541 562.027 430.434 561.645 430.434C561.25 430.434 560.941 430.52 560.719 430.691C560.496 430.863 560.385 431.088 560.385 431.365C560.385 431.627 560.488 431.824 560.695 431.957C560.902 432.09 561.275 432.217 561.814 432.338C562.357 432.459 562.797 432.604 563.133 432.771C563.469 432.939 563.717 433.143 563.877 433.381C564.041 433.615 564.123 433.902 564.123 434.242C564.123 434.809 563.896 435.264 563.443 435.607C562.99 435.947 562.402 436.117 561.68 436.117C561.172 436.117 560.723 436.027 560.332 435.848C559.941 435.668 559.635 435.418 559.412 435.098C559.193 434.773 559.084 434.424 559.084 434.049H560.168C560.188 434.412 560.332 434.701 560.602 434.916C560.875 435.127 561.234 435.232 561.68 435.232C562.09 435.232 562.418 435.15 562.664 434.986C562.914 434.818 563.039 434.596 563.039 434.318ZM568.283 433.709C568.283 433.299 568.396 432.922 568.623 432.578C568.854 432.234 569.291 431.834 569.936 431.377C569.557 430.916 569.303 430.545 569.174 430.264C569.045 429.982 568.98 429.703 568.98 429.426C568.98 428.777 569.172 428.27 569.555 427.902C569.938 427.535 570.457 427.352 571.113 427.352C571.699 427.352 572.184 427.523 572.566 427.867C572.949 428.207 573.141 428.637 573.141 429.156C573.141 429.5 573.053 429.818 572.877 430.111C572.705 430.4 572.402 430.705 571.969 431.025L571.342 431.488L573.24 433.756C573.506 433.248 573.639 432.684 573.639 432.062H574.617C574.617 433.059 574.377 433.885 573.896 434.541L575.115 436H573.814L573.246 435.326C572.957 435.584 572.617 435.781 572.227 435.918C571.84 436.051 571.445 436.117 571.043 436.117C570.211 436.117 569.543 435.896 569.039 435.455C568.535 435.014 568.283 434.432 568.283 433.709ZM571.043 435.232C571.617 435.232 572.143 435.014 572.619 434.576L570.539 432.086L570.346 432.227C569.693 432.707 569.367 433.201 569.367 433.709C569.367 434.17 569.516 434.539 569.812 434.816C570.113 435.094 570.523 435.232 571.043 435.232ZM570.064 429.391C570.064 429.766 570.295 430.234 570.756 430.797L571.447 430.311C571.713 430.123 571.895 429.945 571.992 429.777C572.09 429.605 572.139 429.398 572.139 429.156C572.139 428.895 572.041 428.678 571.846 428.506C571.65 428.33 571.404 428.242 571.107 428.242C570.787 428.242 570.533 428.352 570.346 428.57C570.158 428.785 570.064 429.059 570.064 429.391ZM585.398 433.293C585.293 434.195 584.959 434.893 584.396 435.385C583.838 435.873 583.094 436.117 582.164 436.117C581.156 436.117 580.348 435.756 579.738 435.033C579.133 434.311 578.83 433.344 578.83 432.133V431.312C578.83 430.52 578.971 429.822 579.252 429.221C579.537 428.619 579.939 428.158 580.459 427.838C580.979 427.514 581.58 427.352 582.264 427.352C583.17 427.352 583.896 427.605 584.443 428.113C584.99 428.617 585.309 429.316 585.398 430.211H584.268C584.17 429.531 583.957 429.039 583.629 428.734C583.305 428.43 582.85 428.277 582.264 428.277C581.545 428.277 580.98 428.543 580.57 429.074C580.164 429.605 579.961 430.361 579.961 431.342V432.168C579.961 433.094 580.154 433.83 580.541 434.377C580.928 434.924 581.469 435.197 582.164 435.197C582.789 435.197 583.268 435.057 583.6 434.775C583.936 434.49 584.158 433.996 584.268 433.293H585.398ZM586.482 432.771C586.482 432.15 586.604 431.592 586.846 431.096C587.092 430.6 587.432 430.217 587.865 429.947C588.303 429.678 588.801 429.543 589.359 429.543C590.223 429.543 590.92 429.842 591.451 430.439C591.986 431.037 592.254 431.832 592.254 432.824V432.9C592.254 433.518 592.135 434.072 591.896 434.564C591.662 435.053 591.324 435.434 590.883 435.707C590.445 435.98 589.941 436.117 589.371 436.117C588.512 436.117 587.814 435.818 587.279 435.221C586.748 434.623 586.482 433.832 586.482 432.848V432.771ZM587.572 432.9C587.572 433.604 587.734 434.168 588.059 434.594C588.387 435.02 588.824 435.232 589.371 435.232C589.922 435.232 590.359 435.018 590.684 434.588C591.008 434.154 591.17 433.549 591.17 432.771C591.17 432.076 591.004 431.514 590.672 431.084C590.344 430.65 589.906 430.434 589.359 430.434C588.824 430.434 588.393 430.646 588.064 431.072C587.736 431.498 587.572 432.107 587.572 432.9ZM594.639 429.66L594.674 430.457C595.158 429.848 595.791 429.543 596.572 429.543C597.912 429.543 598.588 430.299 598.6 431.811V436H597.516V431.805C597.512 431.348 597.406 431.01 597.199 430.791C596.996 430.572 596.678 430.463 596.244 430.463C595.893 430.463 595.584 430.557 595.318 430.744C595.053 430.932 594.846 431.178 594.697 431.482V436H593.613V429.66H594.639ZM599.971 432.777C599.971 431.805 600.201 431.023 600.662 430.434C601.123 429.84 601.727 429.543 602.473 429.543C603.215 429.543 603.803 429.797 604.236 430.305V427H605.32V436H604.324L604.271 435.32C603.838 435.852 603.234 436.117 602.461 436.117C601.727 436.117 601.127 435.816 600.662 435.215C600.201 434.613 599.971 433.828 599.971 432.859V432.777ZM601.055 432.9C601.055 433.619 601.203 434.182 601.5 434.588C601.797 434.994 602.207 435.197 602.73 435.197C603.418 435.197 603.92 434.889 604.236 434.271V431.359C603.912 430.762 603.414 430.463 602.742 430.463C602.211 430.463 601.797 430.668 601.5 431.078C601.203 431.488 601.055 432.096 601.055 432.9ZM608.186 436H607.102V429.66H608.186V436ZM607.014 427.979C607.014 427.803 607.066 427.654 607.172 427.533C607.281 427.412 607.441 427.352 607.652 427.352C607.863 427.352 608.023 427.412 608.133 427.533C608.242 427.654 608.297 427.803 608.297 427.979C608.297 428.154 608.242 428.301 608.133 428.418C608.023 428.535 607.863 428.594 607.652 428.594C607.441 428.594 607.281 428.535 607.172 428.418C607.066 428.301 607.014 428.154 607.014 427.979ZM611.396 428.125V429.66H612.58V430.498H611.396V434.43C611.396 434.684 611.449 434.875 611.555 435.004C611.66 435.129 611.84 435.191 612.094 435.191C612.219 435.191 612.391 435.168 612.609 435.121V436C612.324 436.078 612.047 436.117 611.777 436.117C611.293 436.117 610.928 435.971 610.682 435.678C610.436 435.385 610.312 434.969 610.312 434.43V430.498H609.158V429.66H610.312V428.125H611.396ZM615.029 436H613.945V429.66H615.029V436ZM613.857 427.979C613.857 427.803 613.91 427.654 614.016 427.533C614.125 427.412 614.285 427.352 614.496 427.352C614.707 427.352 614.867 427.412 614.977 427.533C615.086 427.654 615.141 427.803 615.141 427.979C615.141 428.154 615.086 428.301 614.977 428.418C614.867 428.535 614.707 428.594 614.496 428.594C614.285 428.594 614.125 428.535 614.016 428.418C613.91 428.301 613.857 428.154 613.857 427.979ZM616.482 432.771C616.482 432.15 616.604 431.592 616.846 431.096C617.092 430.6 617.432 430.217 617.865 429.947C618.303 429.678 618.801 429.543 619.359 429.543C620.223 429.543 620.92 429.842 621.451 430.439C621.986 431.037 622.254 431.832 622.254 432.824V432.9C622.254 433.518 622.135 434.072 621.896 434.564C621.662 435.053 621.324 435.434 620.883 435.707C620.445 435.98 619.941 436.117 619.371 436.117C618.512 436.117 617.814 435.818 617.279 435.221C616.748 434.623 616.482 433.832 616.482 432.848V432.771ZM617.572 432.9C617.572 433.604 617.734 434.168 618.059 434.594C618.387 435.02 618.824 435.232 619.371 435.232C619.922 435.232 620.359 435.018 620.684 434.588C621.008 434.154 621.17 433.549 621.17 432.771C621.17 432.076 621.004 431.514 620.672 431.084C620.344 430.65 619.906 430.434 619.359 430.434C618.824 430.434 618.393 430.646 618.064 431.072C617.736 431.498 617.572 432.107 617.572 432.9ZM624.639 429.66L624.674 430.457C625.158 429.848 625.791 429.543 626.572 429.543C627.912 429.543 628.588 430.299 628.6 431.811V436H627.516V431.805C627.512 431.348 627.406 431.01 627.199 430.791C626.996 430.572 626.678 430.463 626.244 430.463C625.893 430.463 625.584 430.557 625.318 430.744C625.053 430.932 624.846 431.178 624.697 431.482V436H623.613V429.66H624.639ZM633.926 434.318C633.926 434.025 633.814 433.799 633.592 433.639C633.373 433.475 632.988 433.334 632.438 433.217C631.891 433.1 631.455 432.959 631.131 432.795C630.811 432.631 630.572 432.436 630.416 432.209C630.264 431.982 630.188 431.713 630.188 431.4C630.188 430.881 630.406 430.441 630.844 430.082C631.285 429.723 631.848 429.543 632.531 429.543C633.25 429.543 633.832 429.729 634.277 430.1C634.727 430.471 634.951 430.945 634.951 431.523H633.861C633.861 431.227 633.734 430.971 633.48 430.756C633.23 430.541 632.914 430.434 632.531 430.434C632.137 430.434 631.828 430.52 631.605 430.691C631.383 430.863 631.271 431.088 631.271 431.365C631.271 431.627 631.375 431.824 631.582 431.957C631.789 432.09 632.162 432.217 632.701 432.338C633.244 432.459 633.684 432.604 634.02 432.771C634.355 432.939 634.604 433.143 634.764 433.381C634.928 433.615 635.01 433.902 635.01 434.242C635.01 434.809 634.783 435.264 634.33 435.607C633.877 435.947 633.289 436.117 632.566 436.117C632.059 436.117 631.609 436.027 631.219 435.848C630.828 435.668 630.521 435.418 630.299 435.098C630.08 434.773 629.971 434.424 629.971 434.049H631.055C631.074 434.412 631.219 434.701 631.488 434.916C631.762 435.127 632.121 435.232 632.566 435.232C632.977 435.232 633.305 435.15 633.551 434.986C633.801 434.818 633.926 434.596 633.926 434.318Z" fill="#AAAAAA"/>
<path d="M527 351C527 349.895 527.895 349 529 349H671C672.105 349 673 349.895 673 351V397C673 398.105 672.105 399 671 399H529C527.895 399 527 398.105 527 397V351Z" fill="#46856E"/>
<path d="M563.191 376.881C562.902 377.295 562.498 377.605 561.979 377.812C561.463 378.016 560.861 378.117 560.174 378.117C559.479 378.117 558.861 377.955 558.322 377.631C557.783 377.303 557.365 376.838 557.068 376.236C556.775 375.635 556.625 374.938 556.617 374.145V373.4C556.617 372.115 556.916 371.119 557.514 370.412C558.115 369.705 558.959 369.352 560.045 369.352C560.936 369.352 561.652 369.58 562.195 370.037C562.738 370.49 563.07 371.135 563.191 371.971H562.066C561.855 370.842 561.184 370.277 560.051 370.277C559.297 370.277 558.725 370.543 558.334 371.074C557.947 371.602 557.752 372.367 557.748 373.371V374.068C557.748 375.025 557.967 375.787 558.404 376.354C558.842 376.916 559.434 377.197 560.18 377.197C560.602 377.197 560.971 377.15 561.287 377.057C561.604 376.963 561.865 376.805 562.072 376.582V374.666H560.098V373.752H563.191V376.881ZM571.895 374.057H568.197V377.08H572.492V378H567.072V369.469H572.434V370.395H568.197V373.137H571.895V374.057ZM581.904 370.395H579.162V378H578.043V370.395H575.307V369.469H581.904V370.395ZM594.623 375.773H591.049L590.246 378H589.086L592.344 369.469H593.328L596.592 378H595.438L594.623 375.773ZM591.389 374.848H594.289L592.836 370.857L591.389 374.848ZM607.846 374.549H605.842V378H604.711V369.469H607.535C608.496 369.469 609.234 369.688 609.75 370.125C610.27 370.562 610.529 371.199 610.529 372.035C610.529 372.566 610.385 373.029 610.096 373.424C609.811 373.818 609.412 374.113 608.9 374.309L610.904 377.93V378H609.697L607.846 374.549ZM605.842 373.629H607.57C608.129 373.629 608.572 373.484 608.9 373.195C609.232 372.906 609.398 372.52 609.398 372.035C609.398 371.508 609.24 371.104 608.924 370.822C608.611 370.541 608.158 370.398 607.564 370.395H605.842V373.629ZM620.674 374.01C620.674 374.846 620.533 375.576 620.252 376.201C619.971 376.822 619.572 377.297 619.057 377.625C618.541 377.953 617.939 378.117 617.252 378.117C616.58 378.117 615.984 377.953 615.465 377.625C614.945 377.293 614.541 376.822 614.252 376.213C613.967 375.6 613.82 374.891 613.812 374.086V373.471C613.812 372.65 613.955 371.926 614.24 371.297C614.525 370.668 614.928 370.188 615.447 369.855C615.971 369.52 616.568 369.352 617.24 369.352C617.924 369.352 618.525 369.518 619.045 369.85C619.568 370.178 619.971 370.656 620.252 371.285C620.533 371.91 620.674 372.639 620.674 373.471V374.01ZM619.555 373.459C619.555 372.447 619.352 371.672 618.945 371.133C618.539 370.59 617.971 370.318 617.24 370.318C616.529 370.318 615.969 370.59 615.559 371.133C615.152 371.672 614.943 372.422 614.932 373.383V374.01C614.932 374.99 615.137 375.762 615.547 376.324C615.961 376.883 616.529 377.162 617.252 377.162C617.979 377.162 618.541 376.898 618.939 376.371C619.338 375.84 619.543 375.08 619.555 374.092V373.459ZM630.924 374.01C630.924 374.846 630.783 375.576 630.502 376.201C630.221 376.822 629.822 377.297 629.307 377.625C628.791 377.953 628.189 378.117 627.502 378.117C626.83 378.117 626.234 377.953 625.715 377.625C625.195 377.293 624.791 376.822 624.502 376.213C624.217 375.6 624.07 374.891 624.062 374.086V373.471C624.062 372.65 624.205 371.926 624.49 371.297C624.775 370.668 625.178 370.188 625.697 369.855C626.221 369.52 626.818 369.352 627.49 369.352C628.174 369.352 628.775 369.518 629.295 369.85C629.818 370.178 630.221 370.656 630.502 371.285C630.783 371.91 630.924 372.639 630.924 373.471V374.01ZM629.805 373.459C629.805 372.447 629.602 371.672 629.195 371.133C628.789 370.59 628.221 370.318 627.49 370.318C626.779 370.318 626.219 370.59 625.809 371.133C625.402 371.672 625.193 372.422 625.182 373.383V374.01C625.182 374.99 625.387 375.762 625.797 376.324C626.211 376.883 626.779 377.162 627.502 377.162C628.229 377.162 628.791 376.898 629.189 376.371C629.588 375.84 629.793 375.08 629.805 374.092V373.459ZM636.064 369.469L638.854 376.43L641.643 369.469H643.102V378H641.977V374.678L642.082 371.092L639.281 378H638.42L635.625 371.109L635.736 374.678V378H634.611V369.469H636.064Z" fill="white"/>
<defs>
<clipPath id="clip0_0_366">
<rect width="64" height="51" fill="white" transform="translate(568 185)"/>
</clipPath>
</defs>
</svg>
